Coordinates
version=1
nRows=5
nColumns=46
inDegrees=yes

Units are S.I. units (second, meters, Newtons, ...)
Angles are in degrees.

endheader
time	pelvis_tilt	pelvis_list	pelvis_rotation	pelvis_tx	pelvis_ty	pelvis_tz	bb_angle	bb_tx	bb_ty	bb_tz	hip_flexion_r	hip_adduction_r	hip_rotation_r	knee_angle_r	knee_angle_r_beta	ankle_angle_r	subtalar_angle_r	mtp_angle_r	crank_angle_r	hip_flexion_l	hip_adduction_l	hip_rotation_l	knee_angle_l	knee_angle_l_beta	ankle_angle_l	subtalar_angle_l	mtp_angle_l	crank_angle_l	lumbar_extension	lumbar_bending	lumbar_rotation	arm_flex_r	arm_add_r	arm_rot_r	elbow_flex_r	pro_sup_r	wrist_flex_r	wrist_dev_r	arm_flex_l	arm_add_l	arm_rot_l	elbow_flex_l	pro_sup_l	wrist_flex_l	wrist_dev_l
      5.00500000	    -24.20007635	    -12.26894426	     -4.47444355	      0.41233588	      1.06712000	     -0.24075185	      0.00000000	      0.50000000	      0.00000000	      0.25000000	     62.64062870	      6.75839503	     -0.09248504	    109.86781089	      1.91755504	     12.67812917	     10.15776072	      0.00000000	      0.00000000	     38.52943245	    -19.08321763	      0.18179930	     32.90382509	      0.57428008	    -13.42508844	     -0.47782801	      0.00000000	      0.00000000	    -45.16763715	      5.21188430	      1.07319089	     59.28768814	      1.09675678	     28.52799826	     35.23327604	     50.71554435	      0.00000000	      0.00000000	     37.75187155	    -28.51108780	     17.68043492	     75.44170553	     48.36346293	      0.00000000	      0.00000000
      5.01000000	    -24.45233088	    -12.68453691	     -5.75023248	      0.41160392	      1.06667458	     -0.24153769	      0.00000000	      0.50000000	      0.00000000	      0.25000000	     64.35736615	      7.59355161	      0.01944619	    110.79764493	      1.93378371	     13.11462681	     10.68385464	      0.00000000	      0.00000000	     37.20840806	    -19.96660041	     -0.47407356	     31.78057647	      0.55467570	    -14.24911200	     -0.83545682	      0.00000000	      0.00000000	    -45.19634770	      5.84835560	      1.90807970	     59.64777777	      1.47645398	     28.79265048	     35.36176968	     50.74518151	      0.00000000	      0.00000000	     37.12105460	    -28.93289170	     17.56090320	     75.05013783	     48.30145651	      0.00000000	      0.00000000
      5.01500000	    -24.54013406	    -12.83132390	     -6.94200555	      0.41101129	      1.06656424	     -0.24241637	      0.00000000	      0.50000000	      0.00000000	      0.25000000	     65.88640950	      8.15163366	      0.26707112	    111.67999182	      1.94918357	     13.78421490	     11.58113595	      0.00000000	      0.00000000	     35.61644557	    -20.52925505	     -1.33709249	     30.59997972	      0.53407040	    -15.16203632	     -1.26589218	      0.00000000	      0.00000000	    -45.44055070	      6.28286750	      2.23938559	     60.48837490	      2.02568220	     29.90356117	     34.94194919	     50.76417026	      0.00000000	      0.00000000	     36.09359128	    -29.45672311	     16.52492352	     75.17121242	     48.28473780	      0.00000000	      0.00000000
      5.02000000	    -24.85583314	    -13.15104166	     -8.32848406	      0.41053914	      1.06632742	     -0.24307956	      0.00000000	      0.50000000	      0.00000000	      0.25000000	     67.58191125	      8.97798775	      0.27393000	    112.28592565	      1.95975911	     14.10354191	     11.90543804	      0.00000000	      0.00000000	     34.38883226	    -21.41835319	     -2.43463689	     29.86901192	      0.52131260	    -15.77466091	     -1.47490610	      0.00000000	      0.00000000	    -45.48043140	      6.83938859	      3.11292231	     60.81221207	      2.48232985	     30.25131360	     35.03023794	     50.80652498	      0.00000000	      0.00000000	     35.27055518	    -29.80067079	     16.26189540	     74.93422703	     48.24654106	      0.00000000	      0.00000000
      5.02500000	    -25.02468856	    -13.26406781	     -9.54358997	      0.41000268	      1.06648540	     -0.24383312	      0.00000000	      0.50000000	      0.00000000	      0.25000000	     69.09356973	      9.55421798	      0.34379555	    112.74672818	      1.96780163	     14.38669111	     12.47903657	      0.00000000	      0.00000000	     32.99162718	    -22.00591773	     -3.61439253	     29.08465233	      0.50762294	    -16.31059790	     -1.55580824	      0.00000000	      0.00000000	    -45.82263575	      7.30307624	      3.10643459	     61.95371923	      3.52133322	     32.02639475	     33.98294759	     50.71931961	      0.00000000	      0.00000000	     33.29524343	    -30.39488009	     13.95231121	     76.00030186	     48.37240274	      0.00000000	      0.00000000
